<?xml version="1.0" encoding="UTF-8"?>
<svg width="349px" height="51px" viewBox="0 0 349 51" version="1.1" xmlns="http://www.w3.org/2000/svg" xmlns:xlink="http://www.w3.org/1999/xlink">
    <!-- Generator: Sketch 60.1 (88133) - https://sketch.com -->
    <title>Group</title>
    <desc>Created with Sketch.</desc>
    <g id="Page-1" stroke="none" stroke-width="1" fill="none" fill-rule="evenodd">
        <g id="Group" fill="#FFFFFF" fill-rule="nonzero">
            <path d="M28.872,51 L28.872,36.6 L15.768,36.6 L15.768,0.024 L0,0.024 L0,51 L28.872,51 Z M59.32,51 L59.32,26 L43.48,26 L43.48,51 L59.32,51 Z M104.456,51 L116.84,0.024 L99.776,0.024 L95.312,32.208 L95.096,32.208 L90.488,0.024 L72.632,0.024 L84.728,51 L104.456,51 Z M158.304,51 L158.304,37.032 L145.056,37.032 L145.056,31.632 L156.216,31.632 L156.216,18.888 L145.056,18.888 L145.056,13.776 L157.368,13.776 L157.368,0.024 L130.152,0.024 L130.152,51 L158.304,51 Z M189.4,51 C190.936,51 192.52,50.76 194.152,50.28 C195.784,49.8 197.272,49.008 198.616,47.904 C199.96,46.8 201.064,45.36 201.928,43.584 C202.792,41.808 203.224,39.6 203.224,36.96 C203.224,34.896 202.948,33.108 202.396,31.596 C201.844,30.084 201.136,28.812 200.272,27.78 C199.408,26.748 198.46,25.944 197.428,25.368 C196.396,24.792 195.424,24.408 194.512,24.216 L194.512,24.072 C195.424,23.736 196.3,23.256 197.14,22.632 C197.98,22.008 198.724,21.228 199.372,20.292 C200.02,19.356 200.536,18.264 200.92,17.016 C201.304,15.768 201.496,14.304 201.496,12.624 C201.496,10.128 201.064,8.064 200.2,6.432 C199.336,4.8 198.232,3.504 196.888,2.544 C195.544,1.584 194.068,0.924 192.46,0.564 C190.852,0.204 189.328,0.024 187.888,0.024 L175.648,0.024 L175.648,51 L189.4,51 Z M187.312,21.912 L181.768,21.912 L181.768,5.496 L187.168,5.496 C188.224,5.496 189.244,5.628 190.228,5.892 C191.212,6.156 192.088,6.612 192.856,7.26 C193.624,7.908 194.248,8.748 194.728,9.78 C195.208,10.812 195.448,12.096 195.448,13.632 C195.448,15.12 195.208,16.392 194.728,17.448 C194.248,18.504 193.624,19.356 192.856,20.004 C192.088,20.652 191.212,21.132 190.228,21.444 C189.244,21.756 188.272,21.912 187.312,21.912 L187.312,21.912 Z M188.032,45.528 L181.768,45.528 L181.768,27.024 L187.744,27.024 C188.8,27.024 189.868,27.192 190.948,27.528 C192.028,27.864 193,28.404 193.864,29.148 C194.728,29.892 195.436,30.876 195.988,32.1 C196.54,33.324 196.816,34.8 196.816,36.528 C196.816,38.112 196.588,39.468 196.132,40.596 C195.676,41.724 195.052,42.648 194.26,43.368 C193.468,44.088 192.532,44.628 191.452,44.988 C190.372,45.348 189.232,45.528 188.032,45.528 L188.032,45.528 Z M243.824,51 L243.824,45.168 L227.912,45.168 L227.912,27.24 L242.096,27.24 L242.096,21.84 L227.912,21.84 L227.912,5.784 L243.104,5.784 L243.104,0.024 L221.648,0.024 L221.648,51 L243.824,51 Z M263.832,51 L266.784,39.048 L281.544,39.048 L284.424,51 L291.192,51 L278.664,0.024 L270.096,0.024 L257.28,51 L263.832,51 Z M280.68,33.936 L267.648,33.936 L274.128,6.072 L274.416,6.072 L280.68,33.936 Z M313.36,51 L313.36,8.808 L313.576,8.808 L324.808,51 L330.64,51 L342.016,8.808 L342.232,8.808 L342.232,51 L348.64,51 L348.64,0.024 L338.704,0.024 L328.048,40.488 L327.76,40.488 L316.888,0.024 L307.384,0.024 L307.384,51 L313.36,51 Z" id="LIVEBEAM" fill-opacity="0.859730114"></path>
            <g id="projector-(1)" transform="translate(35.000000, 0.000000)" fill-opacity="0.63043597">
                <path d="M23.844,0 C21.9795,0 20.1645,0.619230769 18.63,1.76923077 L4.044,1.76923077 C2.2125,1.76923077 0.744,3.34384615 0.744,5.30769231 L0.744,15.9230769 C0.744,17.8869231 2.2125,19.4615385 4.044,19.4615385 L5.694,19.4615385 L5.694,21.2307692 C5.694,22.2078884 6.43273016,23 7.344,23 L10.644,23 C11.5552698,23 12.294,22.2078884 12.294,21.2307692 L12.294,19.4615385 L22.194,19.4615385 L22.194,21.2307692 C22.194,22.2078884 22.9327302,23 23.844,23 L27.144,23 C28.0552698,23 28.794,22.2078884 28.794,21.2307692 L28.794,19.4615385 L30.444,19.4615385 C32.2755,19.4615385 33.744,17.8869231 33.744,15.9230769 L33.744,5.30769231 C33.744,3.34384615 32.2755,1.76923077 30.444,1.76923077 L29.0415,1.76923077 C27.5235,0.619230769 25.7085,0 23.844,0 M23.844,2.65384615 C27.0334444,2.65384615 29.619,5.42623674 29.619,8.84615385 C29.619,12.266071 27.0334444,15.0384615 23.844,15.0384615 C20.6545556,15.0384615 18.069,12.266071 18.069,8.84615385 C18.069,5.42623674 20.6545556,2.65384615 23.844,2.65384615 M4.044,5.30769231 L10.644,5.30769231 L10.644,7.07692308 L4.044,7.07692308 L4.044,5.30769231 M23.844,5.30769231 C22.0214603,5.30769231 20.544,6.8919155 20.544,8.84615385 C20.544,10.8003922 22.0214603,12.3846154 23.844,12.3846154 C25.6665397,12.3846154 27.144,10.8003922 27.144,8.84615385 C27.144,6.8919155 25.6665397,5.30769231 23.844,5.30769231 M4.044,8.84615385 L10.644,8.84615385 L10.644,10.6153846 L4.044,10.6153846 L4.044,8.84615385 M4.044,12.3846154 L10.644,12.3846154 L10.644,14.1538462 L4.044,14.1538462 L4.044,12.3846154 Z" id="Shape"></path>
            </g>
        </g>
    </g>
</svg>