<?xml version="1.0" encoding="UTF-8"?>
<svg class="sol-icon" viewBox="0 0 30 31" version="1.1" xmlns="http://www.w3.org/2000/svg" xmlns:xlink="http://www.w3.org/1999/xlink">
    <!-- Generator: Sketch 60.1 (88133) - https://sketch.com -->
    <title>Group 6</title>
    <desc>Created with Sketch.</desc>
    <g id="Page-2" stroke="none" stroke-width="1" fill="none" fill-rule="evenodd">
        <g id="Artboard-Copy" transform="translate(-694.000000, -401.000000)">
            <g id="Group-6" transform="translate(694.000000, 401.000000)">
                <path d="M23.66403,24.412197 C29.07754,25.730727 29.07754,27.868485 23.66403,29.187015 C18.25056,30.505552 9.47359,30.505552 4.060111,29.187015 C-1.3533923,27.868485 -1.3533923,25.730727 4.060111,24.412197 C9.47359,23.09366 18.25056,23.09366 23.66403,24.412197 Z" id="Fill-1" fill="#DD851B"></path>
                <path d="M12.65161,15.43325 C16.61541,14.4441 22.87007,15.12516 26.62179,16.95444 C30.37354,18.78371 30.20162,21.068487 26.23781,22.057626 C22.27401,23.046775 16.01935,22.365715 12.26763,20.53644 C8.515881,18.70716 8.687796,16.42239 12.65161,15.43325 Z" id="Fill-3" fill="#DD851B"></path>
                <path d="M15.37285,7.52576 C18.49343,6.54167 23.3927,7.07514 26.31567,8.71731 C29.23866,10.35947 29.07847,12.48846 25.95787,13.47255 C22.83729,14.45664 17.93802,13.92317 15.01504,12.281 C12.09205,10.63884 12.25225,8.50985 15.37285,7.52576 Z" id="Fill-4" fill-opacity="0.7922" fill="#000015"></path>
                <path d="M24.50246,0.87083 C26.72486,1.52403 26.80944,2.89682 24.6914,3.93705 C22.57336,4.97728 19.05476,5.29103 16.83238,4.63783 C14.60999,3.98463 14.5254,2.61184 16.64345,1.57161 C18.76148,0.53138 22.28008,0.21763 24.50246,0.87083 Z" id="Fill-5" fill="#DD851B"></path>
            </g>
        </g>
    </g>
</svg>